# xmcd
#
# Track frame offsets:
#	150
#	12164
#	26842
#	47926
#	58752
#	72383
#	80650
#	93656
#	105229
#	122818
#	135258
#	152433
#	170790
#	184658
#	194713
#
# Disc length: 2839 seconds
#
# Revision: 1
# Processed by: cddbd v1.5.2PL0 Copyright (c) Steve Scherf et al.
# Submitted via: audiograbber 1.83.01
#
DISCID=d00b150f
DTITLE=Tangle Ridge - Mussentuchit
DYEAR=2006
DGENRE=Bluegrass
TTITLE0=Blonde Hair Sparklin'
TTITLE1=Sweet Relief
TTITLE2=Winnebago
TTITLE3=Lonesome Fiddle Blues
TTITLE4=The Mountain
TTITLE5=Darkest Hour
TTITLE6=Catfish John
TTITLE7=Mountain City Bed
TTITLE8=Everett Reuss
TTITLE9=Red Rock Country Home
TTITLE10=Silver Dagger
TTITLE11=Leavin' Train
TTITLE12=Cheatin' On Your Memory
TTITLE13=Rain, Rain, Rain
TTITLE14=Stealin'
EXTD=
EXTT0=
EXTT1=
EXTT2=
EXTT3=
EXTT4=
EXTT5=
EXTT6=
EXTT7=
EXTT8=
EXTT9=
EXTT10=
EXTT11=
EXTT12=
EXTT13=
EXTT14=
PLAYORDER=
